<svg width="43" height="31" viewBox="0 0 43 31" fill="none" xmlns="http://www.w3.org/2000/svg">
<path fill-rule="evenodd" clip-rule="evenodd" d="M0 2.9025C0 1.74405 0.93911 0.804939 2.09756 0.804939H40.9024C42.0609 0.804939 43 1.74405 43 2.9025C43 4.06095 42.0609 5.00006 40.9024 5.00006H2.09756C0.93911 5.00006 0 4.06095 0 2.9025ZM0 15.4879C0 14.3295 0.93911 13.3904 2.09756 13.3904H40.9024C42.0609 13.3904 43 14.3295 43 15.4879C43 16.6464 42.0609 17.5855 40.9024 17.5855H2.09756C0.93911 17.5855 0 16.6464 0 15.4879ZM2.09756 25.9756C0.93911 25.9756 0 26.9147 0 28.0732C0 29.2316 0.93911 30.1707 2.09756 30.1707H40.9024C42.0609 30.1707 43 29.2316 43 28.0732C43 26.9147 42.0609 25.9756 40.9024 25.9756H2.09756Z" fill="black"/>
</svg>
