<svg width="234" height="95" viewBox="0 0 234 95" fill="none" xmlns="http://www.w3.org/2000/svg">
<path d="M172.521 6H28L228 89L172.521 6Z" fill="#007BFF"/>
<path d="M28 6V0.5H0.398039L25.8918 11.0799L28 6ZM172.521 6L177.093 2.94358L175.46 0.5H172.521V6ZM228 89L225.892 94.0799C228.13 95.0088 230.713 94.3632 232.251 92.4902C233.789 90.6172 233.919 87.9584 232.573 85.9436L228 89ZM28 11.5H172.521V0.5H28V11.5ZM167.948 9.05642L223.427 92.0564L232.573 85.9436L177.093 2.94358L167.948 9.05642ZM230.108 83.9201L30.1082 0.920076L25.8918 11.0799L225.892 94.0799L230.108 83.9201Z" fill="#007BFF"/>
</svg>
