<svg width="234" height="95" viewBox="0 0 234 95" fill="none" xmlns="http://www.w3.org/2000/svg">
<path d="M61.4794 6H206L6 89L61.4794 6Z" fill="#F0F0F0"/>
<path d="M206 6V0.5H233.602L208.108 11.0799L206 6ZM61.4794 6L56.9069 2.94358L58.5402 0.5H61.4794V6ZM6 89L8.10817 94.0799C5.8698 95.0088 3.28721 94.3632 1.74931 92.4902C0.211417 90.6172 0.080692 87.9584 1.42744 85.9436L6 89ZM206 11.5H61.4794V0.5H206V11.5ZM66.052 9.05642L10.5726 92.0564L1.42744 85.9436L56.9069 2.94358L66.052 9.05642ZM3.89183 83.9201L203.892 0.920076L208.108 11.0799L8.10817 94.0799L3.89183 83.9201Z" fill="#F0F0F0"/>
</svg>
