<svg xmlns="http://www.w3.org/2000/svg" width="54" height="48" viewBox="0 0 54 48" fill="none">
  <path d="M3 23.8506C3 14.2506 6 10.3506 10 6.35059L20.5 16.3506C18.1 18.3506 17.1667 22.1839 17 23.8506H3Z" stroke="black"/>
  <path d="M50.4331 24.3506C50.4331 33.9506 47.4331 37.8506 43.4331 41.8506L32.9331 31.8506C35.3331 29.8506 36.2664 26.0173 36.4331 24.3506L50.4331 24.3506Z" stroke="black"/>
  <path d="M32.5294 1.35055C41.8023 3.83521 44.7929 7.74238 47.6214 12.6414L35.2445 20.1954C33.9338 17.3595 30.4727 15.4659 28.9059 14.8735L32.5294 1.35055Z" stroke="black"/>
  <path d="M21.1755 46.8677C11.8422 44.6206 8.75271 40.7911 5.80012 35.9659L17.9801 28.0984C19.3627 30.8998 22.8711 32.7045 24.4525 33.2567L21.1755 46.8677Z" stroke="black"/>
  <path d="M32.5 1.35036C20.9 -0.249637 12.6667 4.01703 10 6.35036L20.5 16.3503C23.7 13.9503 27.3333 14.517 29 14.8503L32.5 1.35036Z" fill="#D96A9E" stroke="black"/>
  <path d="M21.5742 46.9561C33.1678 48.6017 40.4998 45.8501 43.4998 41.8501L32.9998 31.8501C29.7904 34.2374 26.7927 33.8099 25.1273 33.47L21.5742 46.9561Z" fill="#D96A9E" stroke="black"/>
  <path d="M50.4998 24.3503C50.9999 21.8503 50.4998 16.8503 47.4999 12.3503L34.9999 19.8503C35.9999 22.3503 35.9999 22.3503 36.4999 24.3503L50.4998 24.3503Z" fill="#D96A9E" stroke="black"/>
  <path d="M2.79899 23.8504C2.29895 26.3503 2.79899 31.3503 5.79895 35.8503L18.299 28.3504C17.299 25.8504 17.299 25.8504 16.7989 23.8504L2.79899 23.8504Z" fill="#D96A9E" stroke="black"/>
</svg>