<svg xmlns="http://www.w3.org/2000/svg" width="30" height="52" viewBox="0 0 30 52" fill="none">
  <path d="M26.4478 5.92585C19.6613 -2.76238 7.33166 0.582087 1.64505 11.7291C1.24308 12.517 1.49483 13.4706 2.19815 14.007C2.94813 14.5791 4.00261 14.5213 4.68564 13.8708L11.5878 7.29737C13.1363 5.82259 15.1928 5 17.3312 5H17.9423C19.2806 5 20.5854 5.41816 21.6745 6.19604L22.0984 6.49887C23.0059 7.14708 23.6668 8.08383 23.9732 9.15614C24.312 10.3421 24.194 11.612 23.6424 12.7152L23.0888 13.8225C22.6988 14.6024 22.1857 15.3143 21.5691 15.9309L19.005 18.495C18.3359 19.1641 17.62 19.785 16.8629 20.3528L16.7407 20.4445C14.9268 21.8049 13.3574 23.4639 12.0997 25.3505L12 25.5L11.1878 26.6742C10.0739 28.2844 9.29385 30.1014 8.89371 32.0181C8.688 33.0034 8.58432 34.0073 8.58432 35.0139V37.5V40.3215C8.58432 41.2873 9.28861 42.1089 10.2431 42.2564C11.4295 42.4398 12.5 41.522 12.5 40.3215V33.6883C12.5 31.0791 13.8516 28.6757 15.9664 27.1474C25.2588 20.4322 31.4463 12.3251 26.4478 5.92585Z" fill="#BAFFE7" stroke="black" stroke-width="2"/>
  <path d="M13.4808 49.2897C13.4808 50.257 12.5305 51.2239 11.1154 51.2239C9.70028 51.2239 8.75 50.257 8.75 49.2897C8.75 48.3224 9.70028 47.3555 11.1154 47.3555C12.5305 47.3555 13.4808 48.3224 13.4808 49.2897Z" fill="#BAFFE7" stroke="black" stroke-width="1.5"/>
</svg>