<svg width="57" height="53" viewBox="0 0 57 53" fill="none" xmlns="http://www.w3.org/2000/svg">
<rect x="1" y="1" width="55" height="51" rx="25.5" fill="#F2B3D1"/>
<path d="M31.5747 8.30663C31.5747 9.08167 31.1332 9.85599 30.273 10.4664C29.4144 11.0757 28.1895 11.4761 26.8015 11.4761C25.4135 11.4761 24.1886 11.0757 23.3301 10.4664C22.4698 9.85599 22.0283 9.08167 22.0283 8.30663C22.0283 7.53159 22.4698 6.75727 23.3301 6.14682C24.1886 5.5376 25.4135 5.13721 26.8015 5.13721C28.1895 5.13721 29.4144 5.5376 30.273 6.14682C31.1332 6.75727 31.5747 7.53159 31.5747 8.30663Z" fill="white" stroke="black" stroke-width="1.5"/>
<path d="M24.9497 38.1691V21.0365V17.5346C24.9497 17.2601 25.014 16.9894 25.1374 16.7441C25.4927 16.0381 26.2755 15.656 27.0507 15.81L27.7964 15.9582C28.9303 16.1835 29.8033 17.0921 29.9831 18.2342L30.819 23.5444C30.9423 24.3279 30.9708 25.1296 30.9339 25.9218C30.194 41.8431 38.0848 45.4993 35.0046 46.7234C29.0252 49.0996 24.9497 44.6033 24.9497 38.1691Z" fill="white" stroke="black" stroke-width="2"/>
<rect x="1" y="1" width="55" height="51" rx="25.5" stroke="black" stroke-width="2"/>
</svg>
