<svg width="52" height="56" viewBox="0 0 52 56" fill="none" xmlns="http://www.w3.org/2000/svg">
<path d="M12.7869 26.7634C13.6211 19.4892 18.6757 13.5717 25.9391 13.5045C33.2702 13.4367 38.5307 19.4172 39.3349 26.7634C40.0778 33.5491 31.6009 35.2064 30.8103 41.9866C30.5716 44.0341 30.8103 47.2657 30.8103 47.2657H20.9462C20.9462 47.2657 21.1785 44.0349 20.9462 41.9866C20.1847 35.273 12.0171 33.4761 12.7869 26.7634Z" fill="#FDEFA4"/>
<path d="M20.9462 50.5804H30.8103M22.8946 55H29.1054M12.7869 40.5134L7.67213 45.5469M6.94145 26.7634H0M12.7869 13.5045L7.67213 8.22545M25.9391 7.2433V0M40.0656 13.5045L45.1803 8.22545M44.4496 26.7634H52M40.0656 40.5134L45.1803 45.5469M25.9391 13.5045C18.6757 13.5717 13.6211 19.4892 12.7869 26.7634C12.0171 33.4761 20.1847 35.273 20.9462 41.9866C21.1785 44.0349 20.9462 47.2657 20.9462 47.2657H30.8103C30.8103 47.2657 30.5716 44.0341 30.8103 41.9866C31.6009 35.2064 40.0778 33.5491 39.3349 26.7634C38.5307 19.4172 33.2702 13.4367 25.9391 13.5045Z" stroke="black" stroke-width="2"/>
</svg>
