<svg xmlns="http://www.w3.org/2000/svg" width="37" height="41" viewBox="0 0 37 41" fill="none">
  <path opacity="0.5" d="M13 6.5835H11.1667C6.8455 6.5835 4.684 6.5835 3.342 7.9255C2 9.2675 2 11.429 2 15.7502V24.9168C2 29.238 2 31.3977 3.342 32.7415C4.684 34.0835 6.8455 34.0835 11.1667 34.0835H13" stroke="#3E695A" stroke-width="2.75"/>
  <path d="M13 10.2059C13 6.0021 13 3.89927 14.2962 2.74977C15.5923 1.60027 17.5742 1.94493 21.5378 2.6361L25.8095 3.38227C30.1985 4.14677 32.393 4.52993 33.6965 6.1396C35 7.7511 35 10.0794 35 14.7379V25.9304C35 30.5871 35 32.9154 33.6983 34.5269C32.393 36.1366 30.1967 36.5198 25.8077 37.2861L21.5397 38.0304C17.576 38.7216 15.5942 39.0663 14.298 37.9168C13 36.7673 13 34.6644 13 30.4606V10.2059Z" stroke="#3E695A" stroke-width="2.75"/>
  <path opacity="0.5" d="M18.5 18.5V22.1667" stroke="black" stroke-width="2.75" stroke-linecap="round"/>
</svg>