<svg xmlns="http://www.w3.org/2000/svg" width="53" height="53" viewBox="0 0 53 53" fill="none">
  <path d="M10.0361 46.1897L10.0359 46.181L10.0355 46.1723C9.99835 45.3557 9.63564 44.4975 8.97055 43.9466C4.02826 39.5546 1 33.1287 1 25.706C1 11.5323 12.0705 1 26.5 1C40.9295 1 52 11.5323 52 25.706C52 39.8797 40.9295 50.4119 26.5 50.4119C23.9324 50.4119 21.3809 50.0776 19.1024 49.3941L19.0464 49.3773L18.9888 49.3671C18.3161 49.2484 17.6316 49.3724 17.0777 49.5679L17.0424 49.5803L17.0082 49.5954L11.7612 51.901L11.759 51.9019C11.0697 52.2068 10.2396 51.7463 10.1679 50.8831L10.0361 46.1897Z" fill="#A7C8F2" stroke="black" stroke-width="2"/>
</svg>